<svg xmlns="http://www.w3.org/2000/svg" viewBox="0 0 120 120" fill="none">
  <!-- Gift bag body -->
  <path d="M25 45 L35 105 L85 105 L95 45 Z" fill="#F4845F" rx="4"/>
  <path d="M25 45 L35 105 L60 105 L60 45 Z" fill="#F4845F"/>
  <path d="M60 45 L60 105 L85 105 L95 45 Z" fill="#E8735A"/>
  <!-- Bag bottom strip -->
  <path d="M33 95 L35 105 L85 105 L87 95 Z" fill="#F7B267"/>
  <!-- Bag handle -->
  <ellipse cx="60" cy="38" rx="18" ry="14" stroke="#F4845F" stroke-width="5" fill="none"/>
  <!-- Turquoise bow -->
  <ellipse cx="47" cy="45" rx="14" ry="9" fill="#43B3AE" transform="rotate(-15 47 45)"/>
  <ellipse cx="73" cy="45" rx="14" ry="9" fill="#43B3AE" transform="rotate(15 73 45)"/>
  <circle cx="60" cy="45" r="6" fill="#3A9D98"/>
  <!-- Bow tails -->
  <path d="M48 50 L40 65 L50 58 Z" fill="#43B3AE"/>
  <path d="M72 50 L80 65 L70 58 Z" fill="#43B3AE"/>
  <!-- Peeking eye -->
  <circle cx="55" cy="75" r="10" fill="white"/>
  <circle cx="57" cy="75" r="6" fill="#4A3728"/>
  <circle cx="59" cy="73" r="2" fill="white"/>
  <!-- Eyelashes -->
  <path d="M48 68 L45 63" stroke="#4A3728" stroke-width="2" stroke-linecap="round"/>
  <path d="M52 66 L50 61" stroke="#4A3728" stroke-width="2" stroke-linecap="round"/>
  <!-- Magnifying glass -->
  <circle cx="82" cy="65" r="10" stroke="#43B3AE" stroke-width="4" fill="rgba(255,200,200,0.4)"/>
  <line x1="89" y1="72" x2="96" y2="80" stroke="#43B3AE" stroke-width="4" stroke-linecap="round"/>
  <!-- Eye inside magnifying glass -->
  <circle cx="82" cy="65" r="5" fill="white"/>
  <circle cx="83" cy="65" r="3" fill="#4A3728"/>
  <circle cx="84" cy="64" r="1" fill="white"/>
  <!-- Sparkles -->
  <path d="M15 25 L17 20 L19 25 L24 27 L19 29 L17 34 L15 29 L10 27 Z" fill="#43B3AE"/>
  <path d="M100 20 L101.5 16 L103 20 L107 21.5 L103 23 L101.5 27 L100 23 L96 21.5 Z" fill="#F7B267"/>
  <path d="M8 55 L9.5 52 L11 55 L14 56.5 L11 58 L9.5 61 L8 58 L5 56.5 Z" fill="#F7B267"/>
  <path d="M105 45 L106 43 L107 45 L109 46 L107 47 L106 49 L105 47 L103 46 Z" fill="#43B3AE"/>
  <path d="M20 95 L21 93 L22 95 L24 96 L22 97 L21 99 L20 97 L18 96 Z" fill="#43B3AE"/>
  <path d="M100 90 L101 88 L102 90 L104 91 L102 92 L101 94 L100 92 L98 91 Z" fill="#F7B267"/>
  <!-- Small dots -->
  <circle cx="30" cy="35" r="2" fill="#43B3AE"/>
  <circle cx="95" cy="35" r="1.5" fill="#F7B267"/>
  <circle cx="12" cy="75" r="1.5" fill="#43B3AE"/>
  <circle cx="108" cy="70" r="2" fill="#F7B267"/>
</svg>
